<mxfile host="app.diagrams.net" modified="2024-04-13T13:21:19.340Z" agent="Mozilla/5.0 (Windows NT 10.0; Win64; x64; rv:124.0) Gecko/20100101 Firefox/124.0" version="24.0.0" etag="XDr1kMVn6gR_ZVMRin_m" type="github">
  <diagram name="Page-1" id="pZ2sfaraDVMPSO87pRbh">
    <mxGraphModel>
      <root>
        <mxCell id="0" />
        <mxCell id="1" parent="0" />
      </root>
    </mxGraphModel>
  </diagram>
</mxfile>
